<mxfile host="app.diagrams.net" modified="2023-10-25T17:36:24.143Z" agent="Mozilla/5.0 (Windows NT 10.0; Win64; x64; rv:109.0) Gecko/20100101 Firefox/118.0" etag="VCy51nvOeWJKyg6zdOO9" version="22.0.8" type="device">
  <diagram name="1 oldal" id="14Ss8sypM1nPlYfU4Tcl">
    <mxGraphModel dx="1674" dy="782" grid="1" gridSize="10" guides="1" tooltips="1" connect="1" arrows="1" fold="1" page="1" pageScale="1" pageWidth="827" pageHeight="1169" math="0" shadow="0">
      <root>
        <mxCell id="0" />
        <mxCell id="1" parent="0" />
        <mxCell id="KgSdLVTCI-xLnkJuOGRE-1" value="" style="whiteSpace=wrap;html=1;aspect=fixed;" parent="1" vertex="1">
          <mxGeometry x="130" y="90" width="740" height="740" as="geometry" />
        </mxCell>
        <mxCell id="KgSdLVTCI-xLnkJuOGRE-3" value="Hello %USER_FULL_NAME%!&#xa;&#xa;At vero eos et accusamus et iusto odio dignissimos ducimus, qui blanditiis praesentium voluptatum deleniti atque corrupti, quosdolores et quas molestias excepturi sint, obcaecati cupiditate non provident, similique sunt in culpa, qui officia deserunt mollitiaanimi, id est laborum et dolorum fuga. Et harum quidem rerum facilis est et expedita distinctio. Nam libero tempore, cum solutanobis est eligendi optio, cumque nihil impedit, quo minus id, quod maxime placeat, facere possimus, omnis voluptas assumendaest, omnis dolor repellendus." style="html=1;shadow=0;dashed=0;shape=mxgraph.bootstrap.rrect;rSize=5;fontSize=12;strokeColor=#dddddd;align=left;spacing=10;verticalAlign=top;whiteSpace=wrap;rounded=0;" parent="1" vertex="1">
          <mxGeometry x="150" y="360" width="490" height="290" as="geometry" />
        </mxCell>
        <mxCell id="KgSdLVTCI-xLnkJuOGRE-4" value="Hír" style="text;html=1;strokeColor=none;fillColor=none;align=center;verticalAlign=middle;whiteSpace=wrap;rounded=0;" parent="1" vertex="1">
          <mxGeometry x="150" y="270" width="60" height="30" as="geometry" />
        </mxCell>
        <mxCell id="KgSdLVTCI-xLnkJuOGRE-5" value="Címe" style="rounded=0;whiteSpace=wrap;html=1;" parent="1" vertex="1">
          <mxGeometry x="150" y="140" width="410" height="30" as="geometry" />
        </mxCell>
        <mxCell id="KgSdLVTCI-xLnkJuOGRE-6" value="Szerkesztes" style="text;html=1;strokeColor=none;fillColor=none;align=center;verticalAlign=middle;whiteSpace=wrap;rounded=0;" parent="1" vertex="1">
          <mxGeometry x="150" y="100" width="90" height="30" as="geometry" />
        </mxCell>
        <mxCell id="KgSdLVTCI-xLnkJuOGRE-7" value="feltltö neve" style="rounded=0;whiteSpace=wrap;html=1;" parent="1" vertex="1">
          <mxGeometry x="150" y="180" width="410" height="30" as="geometry" />
        </mxCell>
        <mxCell id="KgSdLVTCI-xLnkJuOGRE-8" value="lejárat_ideje" style="rounded=0;whiteSpace=wrap;html=1;" parent="1" vertex="1">
          <mxGeometry x="150" y="220" width="410" height="30" as="geometry" />
        </mxCell>
        <mxCell id="KgSdLVTCI-xLnkJuOGRE-9" value="34" style="rounded=0;whiteSpace=wrap;html=1;" parent="1" vertex="1">
          <mxGeometry x="590" y="140" width="50" height="30" as="geometry" />
        </mxCell>
        <mxCell id="KgSdLVTCI-xLnkJuOGRE-11" value="20" style="rounded=0;whiteSpace=wrap;html=1;" parent="1" vertex="1">
          <mxGeometry x="590" y="180" width="50" height="30" as="geometry" />
        </mxCell>
        <mxCell id="KgSdLVTCI-xLnkJuOGRE-13" value="345 maximális karakter szám" style="text;html=1;strokeColor=none;fillColor=none;align=center;verticalAlign=middle;whiteSpace=wrap;rounded=0;" parent="1" vertex="1">
          <mxGeometry x="540" y="530" width="90" height="55" as="geometry" />
        </mxCell>
        <mxCell id="KgSdLVTCI-xLnkJuOGRE-14" value="Mentés" style="rounded=0;whiteSpace=wrap;html=1;fillColor=#008a00;strokeColor=#005700;fontColor=#ffffff;" parent="1" vertex="1">
          <mxGeometry x="150" y="730" width="140" height="70" as="geometry" />
        </mxCell>
        <mxCell id="KgSdLVTCI-xLnkJuOGRE-15" value="Mégse" style="rounded=0;whiteSpace=wrap;html=1;fillColor=#e51400;strokeColor=#B20000;fontColor=#000000;" parent="1" vertex="1">
          <mxGeometry x="687" y="730" width="140" height="70" as="geometry" />
        </mxCell>
        <mxCell id="KgSdLVTCI-xLnkJuOGRE-16" value="" style="endArrow=classic;html=1;rounded=0;entryX=1;entryY=0.5;entryDx=0;entryDy=0;exitX=0;exitY=0.5;exitDx=0;exitDy=0;" parent="1" source="KgSdLVTCI-xLnkJuOGRE-17" target="KgSdLVTCI-xLnkJuOGRE-9" edge="1">
          <mxGeometry width="50" height="50" relative="1" as="geometry">
            <mxPoint x="970" y="170" as="sourcePoint" />
            <mxPoint x="620" y="40" as="targetPoint" />
          </mxGeometry>
        </mxCell>
        <mxCell id="KgSdLVTCI-xLnkJuOGRE-17" value="karakter limit kiirasa" style="text;html=1;strokeColor=none;fillColor=none;align=center;verticalAlign=middle;whiteSpace=wrap;rounded=0;" parent="1" vertex="1">
          <mxGeometry x="970" y="150" width="90" height="40" as="geometry" />
        </mxCell>
        <mxCell id="n3iQ2D6GQHdmPB4rfwy3-1" value="Menu" style="rounded=0;whiteSpace=wrap;html=1;" vertex="1" parent="1">
          <mxGeometry x="150" y="310" width="490" height="30" as="geometry" />
        </mxCell>
        <mxCell id="n3iQ2D6GQHdmPB4rfwy3-2" value="" style="endArrow=classic;html=1;rounded=0;entryX=1;entryY=0.5;entryDx=0;entryDy=0;exitX=0;exitY=0.25;exitDx=0;exitDy=0;" edge="1" parent="1" source="n3iQ2D6GQHdmPB4rfwy3-4" target="n3iQ2D6GQHdmPB4rfwy3-1">
          <mxGeometry width="50" height="50" relative="1" as="geometry">
            <mxPoint x="950" y="330" as="sourcePoint" />
            <mxPoint x="850" y="460" as="targetPoint" />
          </mxGeometry>
        </mxCell>
        <mxCell id="n3iQ2D6GQHdmPB4rfwy3-4" value="&lt;div&gt;különböző&lt;/div&gt;&lt;div&gt;formazasi lehetőségek&lt;br&gt;&lt;/div&gt;" style="text;html=1;strokeColor=none;fillColor=none;align=center;verticalAlign=middle;whiteSpace=wrap;rounded=0;" vertex="1" parent="1">
          <mxGeometry x="980" y="320" width="130" height="50" as="geometry" />
        </mxCell>
      </root>
    </mxGraphModel>
  </diagram>
</mxfile>
